<?xml version="1.0" encoding="UTF-8"?>
<svg xmlns="http://www.w3.org/2000/svg" xmlns:xlink="http://www.w3.org/1999/xlink" viewBox="0 0 48 48" width="48px" height="48px">
<g id="surface17528808">
<path style=" stroke:none;fill-rule:nonzero;fill:rgb(3.137255%,0%,0%);fill-opacity:1;" d="M 41 24 C 41 33.398438 33.398438 41 24 41 C 14.601562 41 7 33.398438 7 24 C 7 14.601562 14.601562 7 24 7 C 33.398438 7 41 14.601562 41 24 Z M 41 24 "/>
<path style=" stroke:none;fill-rule:nonzero;fill:rgb(100%,100%,100%);fill-opacity:1;" d="M 21 41 L 21 35.5 C 21 35.199219 21.199219 35 21.5 35 C 21.800781 35 22 35.199219 22 35.5 L 22 41 L 24 41 L 24 34.5 C 24 34.199219 24.199219 34 24.5 34 C 24.800781 34 25 34.199219 25 34.5 L 25 41 L 27 41 L 27 35.5 C 27 35.199219 27.199219 35 27.5 35 C 27.800781 35 28 35.199219 28 35.5 L 28 41 L 29.800781 41 C 30 40.699219 30 40.398438 30 39.898438 L 30 36 C 30 33.800781 28.101562 30.800781 25.699219 30.800781 L 23.199219 30.800781 C 20.898438 30.800781 18.898438 33.898438 18.898438 36 L 18.898438 39.898438 C 18.898438 40.300781 19 40.699219 19.101562 41 Z M 40.101562 26.398438 C 40.101562 26.398438 38.800781 26 37.699219 26 L 37.601562 26 C 36.5 26 34.699219 26.300781 34.699219 26.300781 C 34.601562 26.300781 34.601562 26.300781 34.601562 26.199219 C 34.601562 26.101562 34.601562 26.101562 34.699219 26.101562 C 34.800781 26.101562 36.699219 25.800781 37.800781 25.800781 C 38.898438 25.800781 40.199219 26.199219 40.300781 26.199219 C 40.398438 26.199219 40.398438 26.300781 40.398438 26.398438 C 40.199219 26.300781 40.199219 26.398438 40.101562 26.398438 Z M 39.800781 27.199219 C 39.800781 27.199219 38.398438 26.800781 37.199219 26.800781 C 36.300781 26.800781 34.199219 27 34.101562 27 C 34 27 34 27 34 26.898438 C 34 26.800781 34 26.800781 34.101562 26.800781 C 34.199219 26.800781 36.300781 26.601562 37.199219 26.601562 C 38.5 26.601562 39.800781 27 39.800781 27 C 39.898438 27 39.898438 27.101562 39.898438 27.199219 C 39.898438 27.101562 39.898438 27.199219 39.800781 27.199219 Z M 7.800781 26.398438 C 7.699219 26.398438 7.699219 26.398438 7.699219 26.300781 C 7.699219 26.199219 7.699219 26.199219 7.800781 26.101562 C 8.601562 25.898438 10.199219 25.601562 11.101562 25.601562 C 11.898438 25.601562 14.601562 25.800781 14.699219 25.800781 C 14.800781 25.800781 14.800781 25.898438 14.800781 25.898438 C 14.800781 26 14.699219 26 14.699219 26 C 14.699219 26 12 25.800781 11.199219 25.800781 C 10.101562 26 8.601562 26.199219 7.800781 26.398438 Z M 8.199219 27.898438 C 8.199219 27.898438 8.101562 27.898438 8.101562 27.800781 C 8.101562 27.699219 8.101562 27.699219 8.101562 27.601562 C 8.199219 27.601562 9.5 26.800781 11 26.601562 C 12.300781 26.398438 15 26.699219 15.199219 26.699219 C 15.300781 26.699219 15.300781 26.800781 15.300781 26.800781 C 15.300781 26.898438 15.199219 26.898438 15.199219 26.898438 C 15.199219 26.898438 12.398438 26.601562 11.101562 26.800781 C 9.601562 27.101562 8.199219 27.898438 8.199219 27.898438 Z M 8.199219 27.898438 "/>
<path style=" stroke:none;fill-rule:nonzero;fill:rgb(100%,100%,100%);fill-opacity:1;" d="M 14.199219 23.5 C 14.199219 19.101562 18.800781 15 24.5 15 C 30.199219 15 34.800781 19 34.800781 23.5 C 34.800781 28 31.5 31 24.5 31 C 17.5 31 14.199219 27.898438 14.199219 23.5 Z M 14.199219 23.5 "/>
<path style=" stroke:none;fill-rule:nonzero;fill:rgb(100%,100%,100%);fill-opacity:1;" d="M 28.601562 16.300781 C 28.601562 16.300781 30.300781 14 33.398438 14 C 34.601562 15.199219 33.800781 18.800781 33.398438 19.800781 Z M 20.398438 16.300781 C 20.398438 16.300781 18.699219 14 15.601562 14 C 14.398438 15.199219 15.199219 18.800781 15.601562 19.800781 Z M 20.101562 35.898438 C 20.101562 35.898438 17.800781 35.898438 17.300781 35.898438 C 16.101562 35.898438 15 35.398438 14.5 34.398438 C 13.898438 33.300781 13.398438 32.101562 11.898438 31.101562 C 11.601562 30.898438 11.800781 30.699219 12.300781 30.699219 C 12.800781 30.800781 13.699219 30.898438 14.398438 31.800781 C 15.101562 32.699219 15.898438 33.800781 17.199219 33.800781 C 18.5 33.800781 19.898438 33.800781 20.699219 32.898438 Z M 20.101562 35.898438 "/>
<path style=" stroke:none;fill-rule:nonzero;fill:rgb(0%,0%,0%);fill-opacity:1;" d="M 24 4 C 13 4 4 13 4 24 C 4 35 13 44 24 44 C 35 44 44 35 44 24 C 44 13 35 4 24 4 Z M 24 40 C 15.199219 40 8 32.800781 8 24 C 8 15.199219 15.199219 8 24 8 C 32.800781 8 40 15.199219 40 24 C 40 32.800781 32.800781 40 24 40 Z M 24 40 "/>
</g>
</svg>
